PathFileType	4	(X/Y/Z)	C:\Users\Basilio\Documents\Thesis Gigler\squatting_fais\c3dfiles\044\SJ_pre4\markers_experimental.trc
DataRate	CameraRate	NumFrames	NumMarkers	Units	OrigDataRate	OrigDataStartFrame	OrigNumFrames
200.000000	200.000000	4	63	mm	200.000000	356	1425
Frame#	Time	FHD			LBHD			RBHD			C7			T10			CLAV			LSHO			LUUPA			LMUPA			LDUPA			LLEP			LMEP			LRAD			LUL			LRFIN			RSHO			RUPA1			RMUPA			RDUPA			RLEP			RMEP			RRAD			RUL			RUFIN			LASI			RASI			USACR			LSACR			LTHI1			LTHI2			LTHI3			LTHI4			LLFC			LMFC			LTIB1			LTIB2			LTIB3			LTIB4			LLMAL			LMMAL			LHEE			LMT1			LMT2			LMT5			RTHI			RTHI2			RTHI3			RTHI4			RLFC			RMFC			RTIB1			RTIB2			RTIB3			RTIB4			RLMAL			RMMAL			RHEE			RMT1			RMT2			RMT5			RSACR			*61			*62			
		X1	Y1	Z1	X2	Y2	Z2	X3	Y3	Z3	X4	Y4	Z4	X5	Y5	Z5	X6	Y6	Z6	X7	Y7	Z7	X8	Y8	Z8	X9	Y9	Z9	X10	Y10	Z10	X11	Y11	Z11	X12	Y12	Z12	X13	Y13	Z13	X14	Y14	Z14	X15	Y15	Z15	X16	Y16	Z16	X17	Y17	Z17	X18	Y18	Z18	X19	Y19	Z19	X20	Y20	Z20	X21	Y21	Z21	X22	Y22	Z22	X23	Y23	Z23	X24	Y24	Z24	X25	Y25	Z25	X26	Y26	Z26	X27	Y27	Z27	X28	Y28	Z28	X29	Y29	Z29	X30	Y30	Z30	X31	Y31	Z31	X32	Y32	Z32	X33	Y33	Z33	X34	Y34	Z34	X35	Y35	Z35	X36	Y36	Z36	X37	Y37	Z37	X38	Y38	Z38	X39	Y39	Z39	X40	Y40	Z40	X41	Y41	Z41	X42	Y42	Z42	X43	Y43	Z43	X44	Y44	Z44	X45	Y45	Z45	X46	Y46	Z46	X47	Y47	Z47	X48	Y48	Z48	X49	Y49	Z49	X50	Y50	Z50	X51	Y51	Z51	X52	Y52	Z52	X53	Y53	Z53	X54	Y54	Z54	X55	Y55	Z55	X56	Y56	Z56	X57	Y57	Z57	X58	Y58	Z58	X59	Y59	Z59	X60	Y60	Z60	X61	Y61	Z61	X62	Y62	Z62	X63	Y63	Z63	

357	1.78	-229.2986450195313	1780.213989257813	-903.4963989257815	-344.3650207519532	1718.835327148438	-993.0921630859377	-398.8084411621095	1692.471313476563	-838.0670166015627	-407.8116760253907	1539.113159179688	-921.3157958984377	-445.3922119140626	1237.024536132813	-928.5493164062502	-266.1268920898438	1495.93701171875	-911.8047485351565	-299.7585144042969	1538.774658203125	-1094.397094726563	-374.4736633300782	1370.226806640625	-1241.869873046875	-343.2054138183594	1330.970947265625	-1234.724975585938	-385.4743652343751	1309.555419921875	-1273.747802734375	-385.7133789062501	1250.2451171875	-1287.708740234375	-454.2809448242189	1244.493286132813	-1238.550659179688	-356.6882934570313	1008.284912109375	-1143.34033203125	-316.1879577636719	996.148620605469	-1197.99365234375	-300.6042480468751	1012.243957519531	-1105.324462890625	-328.5105895996094	1512.50146484375	-719.7227172851564	-406.1084594726564	1338.918579101563	-591.8741455078126	-372.6917419433594	1300.404541015625	-594.5975341796876	-414.152313232422	1276.054565429688	-559.8474731445314	-409.0274963378907	1213.6796875	-546.5615844726564	-478.8826293945314	1203.100952148438	-596.8363037109376	-362.3368530273438	985.9281005859377	-705.8660278320314	-330.8634338378907	967.2626953125002	-643.6922607421876	-301.4018554687501	983.493103027344	-745.0579833984376	-265.1647338867188	1032.246704101563	-1037.227416992188	-268.4462280273438	1006.228759765625	-818.491394042969	-433.5917358398439	1080.513061523438	-923.7007446289065	-437.0575256347657	1048.16650390625	-951.6382446289065	-367.1800537109376	803.3648681640627	-1127.774658203125	-332.5196533203126	726.0334472656251	-1132.331787109375	-285.0517272949219	729.4581909179689	-1126.111938476563	-358.7718811035157	672.5433959960939	-1122.710327148438	-340.7552490234376	513.2674560546876	-1119.503051757813	-329.0011291503907	498.3223571777345	-999.5327148437502	-325.4638366699219	331.0722961425782	-1062.244750976563	-355.2728881835938	292.2197265625001	-1136.19091796875	-325.1440734863282	286.3501281738282	-1100.954223632813	-344.4801940917969	207.3516845703126	-1076.693359375	-401.9887084960939	95.57977294921876	-1132.668212890625	-380.6381530761719	98.91320800781253	-1047.492309570313	-459.087371826172	46.48682022094727	-1084.5712890625	-243.1743621826172	61.41898727416994	-1073.200927734375	-246.4839630126954	63.38454818725587	-1118.923950195313	-282.4697265625001	40.28406143188477	-1164.778686523438	-366.1595153808594	747.1777954101564	-736.1380004882814	-322.8872985839844	696.7150268554689	-726.2960205078126	-289.5578002929688	700.7033081054689	-729.0975952148439	-340.3374023437501	614.9476318359376	-740.0728149414064	-333.1294555664063	502.728485107422	-739.5355224609376	-330.6043090820313	487.5800781250001	-861.5288696289065	-295.7951049804688	370.3208923339844	-753.8063354492189	-373.5495605468751	308.5877990722657	-705.6235961914064	-332.2928771972657	297.2047424316407	-720.9605712890626	-325.4617004394532	244.3996276855469	-742.5102539062501	-402.1100158691407	94.99388885498048	-718.5319824218751	-379.2621154785157	98.33193969726565	-801.1338500976565	-453.6445312500001	47.37872314453126	-762.3647460937501	-245.0550842285157	62.03005599975587	-773.622253417969	-237.3026885986329	61.17248535156251	-735.3548583984376	-273.7880859375001	39.2748146057129	-683.4659423828126	-440.6573791503907	1052.366455078125	-894.5676269531252	nan	nan	nan	nan	nan	nan	
358	1.785	-228.3241882324219	1780.212524414063	-903.5157470703127	-342.6410522460938	1719.246215820313	-993.1922607421877	-398.134246826172	1692.2275390625	-837.7755126953127	-407.2640075683595	1539.335693359375	-921.3941650390627	-445.3129272460939	1237.190307617188	-928.5158691406252	-265.6649780273438	1495.889282226563	-911.8030395507815	-298.9095764160157	1539.2119140625	-1094.244995117188	-374.1262207031251	1370.566650390625	-1241.804321289063	-342.8747558593751	1331.095458984375	-1234.6279296875	-385.0910644531251	1309.861328125	-1273.747314453125	-385.7316284179689	1250.491455078125	-1287.510131835938	-454.240692138672	1244.898803710938	-1238.428955078125	-357.3347778320313	1008.401794433594	-1143.2978515625	-317.1899108886719	995.8696899414065	-1198.1025390625	-301.3680725097657	1012.303100585938	-1105.439697265625	-328.1705322265626	1512.589233398438	-719.7256469726564	-405.7193908691407	1339.040161132813	-591.8951416015626	-372.3012084960938	1300.546264648438	-594.6756591796876	-413.8704833984376	1276.269897460938	-559.8692016601564	-408.5805664062501	1213.8515625	-546.8066406250001	-478.7541809082032	1203.447265625	-597.0092773437501	-362.4140930175782	985.9702148437502	-705.8182373046876	-330.7823181152344	967.3481445312502	-643.7464599609376	-301.4841003417969	983.5549926757815	-745.1391601562501	-265.2903442382813	1032.28369140625	-1037.39892578125	-268.7375488281251	1006.171264648438	-818.5269165039065	-433.7150268554689	1080.552978515625	-923.586608886719	-437.261444091797	1048.23876953125	-951.5653076171877	-367.3002014160157	803.3282470703127	-1127.7783203125	-332.7202758789063	726.0558471679689	-1132.341552734375	-285.2118530273438	729.4929809570314	-1126.178100585938	-358.8699035644532	672.5822753906251	-1122.736328125	-340.7857666015626	513.2587280273439	-1119.518432617188	-328.9913940429688	498.3798217773439	-999.6377563476565	-325.4804687500001	331.0222778320313	-1062.28662109375	-355.3465270996094	292.0757446289063	-1136.195190429688	-325.0711975097657	286.3670959472657	-1100.991943359375	-344.4561157226563	207.332015991211	-1076.659912109375	-401.9816284179689	95.55992126464845	-1132.704223632813	-380.5959472656251	98.90962982177737	-1047.48046875	-459.0498046875001	46.52308654785157	-1084.604736328125	-242.7395935058594	61.9928550720215	-1073.589111328125	-246.7266998291016	64.3480911254883	-1119.178588867188	-282.0039062500001	40.90751266479493	-1164.912353515625	-366.1959228515626	747.0966186523439	-736.1784667968751	-322.8842773437501	696.7803344726564	-726.2799072265626	-289.6016540527344	700.7400512695314	-729.0997924804689	-340.3675231933594	614.8591918945314	-740.0462036132814	-333.0005493164063	502.663787841797	-739.4838256835939	-330.4999694824219	487.5778198242189	-861.4825439453127	-295.7358703613282	370.2831420898438	-753.7864379882814	-373.5321044921876	308.5757446289063	-705.6495361328126	-332.2413330078126	297.1914062500001	-720.9014282226564	-325.3535461425782	244.3060760498047	-742.5116577148439	-402.1130981445314	95.00488281250001	-718.5064697265626	-379.1961059570313	98.34519958496097	-801.0919189453127	-453.712371826172	47.37738418579102	-762.3176269531251	-245.1412658691407	62.01739883422853	-773.623962402344	-237.2988281250001	61.15143203735353	-735.4012451171876	-273.8323059082032	39.3104362487793	-683.4821166992189	-440.5025329589845	1052.387939453125	-894.4470214843752	nan	nan	nan	nan	nan	nan	
359	1.79	-227.1627197265626	1779.975830078125	-903.6526489257815	-342.7597045898438	1718.606567382813	-993.1009521484377	-397.0825500488282	1692.145874023438	-837.8430786132815	-406.6131896972657	1539.44921875	-921.4570922851565	-445.2762451171876	1237.294067382813	-928.503845214844	-265.0895385742188	1495.93017578125	-911.8186035156252	-297.9958190917969	1539.119140625	-1094.187622070313	-373.8755187988282	1370.746948242188	-1241.708374023438	-342.4628601074219	1331.193115234375	-1234.524169921875	-384.870330810547	1310.163940429688	-1273.6474609375	-385.6105346679689	1250.851684570313	-1287.292236328125	-454.2601623535157	1245.278930664063	-1238.261352539063	-358.1504516601563	1008.5283203125	-1143.224243164063	-318.1936950683594	995.8116455078127	-1198.20703125	-301.9927368164063	1012.320068359375	-1105.6162109375	-327.5158386230469	1512.7109375	-719.7997436523439	-405.1781311035157	1339.18701171875	-591.9479370117189	-371.8824768066407	1300.526000976563	-594.5531005859376	-413.5977172851564	1276.365600585938	-559.8706665039064	-408.3861083984376	1213.983276367188	-546.7823486328126	-478.4444885253907	1203.610595703125	-597.0833129882814	-362.4276733398438	985.9436035156252	-705.8216552734376	-330.6965942382813	967.4219970703127	-643.7313842773439	-301.5272827148438	983.5505981445315	-745.1884765625001	-265.5635375976563	1032.310913085938	-1037.48486328125	-268.9716796875001	1006.009826660156	-818.6179199218752	-433.8723449707032	1080.619262695313	-923.4466552734377	-437.3388977050782	1048.241943359375	-951.4302978515627	-367.5132141113282	803.3081665039065	-1127.72802734375	-332.8434753417969	725.9871826171876	-1132.299072265625	-285.3587036132813	729.4844360351564	-1126.198608398438	-358.9910278320313	672.5623168945314	-1122.73974609375	-340.8378295898438	513.2512207031251	-1119.513916015625	-329.0375976562501	498.3498535156251	-999.594177246094	-325.4848632812501	331.0264282226563	-1062.31005859375	-355.2549743652344	292.1381835937501	-1136.1943359375	-325.0065307617188	286.4706726074219	-1101.008056640625	-344.4511108398438	207.2838134765626	-1076.647216796875	-401.9949645996095	95.54084777832033	-1132.688598632813	-380.5714416503907	98.90055084228518	-1047.5224609375	-459.0052795410157	46.53318786621094	-1084.639892578125	-242.7203216552735	61.99634552001955	-1073.596069335938	-246.7608489990235	64.93178558349611	-1119.385375976563	-282.3581848144532	40.17999267578126	-1164.727783203125	-366.2199401855469	747.0909423828126	-736.1589355468751	-322.8765258789063	696.7498168945314	-726.2490844726564	-289.6578674316407	700.7130737304689	-729.0886230468751	-340.3025817871094	614.6311645507814	-739.8566284179689	-332.9411621093751	502.6167907714845	-739.4324340820314	-330.3758239746094	487.5467834472657	-861.384460449219	-295.7017211914063	370.2861633300782	-753.7581787109376	-373.4438171386719	308.5992431640626	-705.5819091796876	-332.2372436523438	297.2121582031251	-720.8812866210939	-325.2113647460938	244.0808410644532	-742.5650024414064	-402.0712890625001	95.01495361328126	-718.4346313476564	-379.2317810058594	98.34273529052737	-801.1089477539065	-453.6296691894532	47.30757904052735	-762.3909301757814	-245.1647644042969	62.04241180419923	-773.6734008789065	-237.2875213623047	61.17414474487306	-735.3782348632814	-273.8192443847657	39.29799270629884	-683.4315795898439	-440.655242919922	1052.417846679688	-894.3437500000002	nan	nan	nan	nan	nan	nan	
360	1.795	-226.4686889648438	1779.737915039063	-903.467468261719	-341.7986145019532	1718.716674804688	-993.094421386719	-396.197235107422	1692.194091796875	-837.7739868164065	-405.9900817871095	1539.422485351563	-921.4490356445315	-445.2493896484376	1237.41064453125	-928.4421386718752	-264.2092590332032	1496.021484375	-911.738952636719	-297.2385559082032	1539.07666015625	-1094.060791015625	-373.5146789550782	1371.007568359375	-1241.589599609375	-341.8770141601563	1331.5927734375	-1234.776977539063	-384.6058349609376	1310.344482421875	-1273.469116210938	-385.5820617675782	1251.09423828125	-1287.199462890625	-454.2604980468751	1245.978271484375	-1238.094970703125	-359.3183898925782	1008.650390625	-1143.157470703125	-319.1198730468751	995.754333496094	-1198.390991210938	-302.5779418945313	1012.392028808594	-1105.811645507813	-326.8677368164063	1512.791381835938	-719.8392944335939	-404.7538452148439	1339.239624023438	-591.8880615234376	-371.4350585937501	1300.607055664063	-594.6266479492189	-413.2468261718751	1276.6337890625	-559.9183349609376	-407.979949951172	1214.116577148438	-546.8297119140626	-478.1015930175782	1203.916625976563	-597.2868652343751	-362.4342041015626	985.8980102539065	-705.7517089843751	-330.6096191406251	967.5029907226565	-643.6632080078126	-301.6156005859376	983.6231689453127	-745.2520751953126	-265.8402099609376	1032.281860351563	-1037.6015625	-269.0984802246094	1006.040588378906	-818.736022949219	-434.0646057128907	1080.598388671875	-923.2449951171877	-439.8141479492189	1049.081298828125	-951.0159912109377	-367.6217956542969	803.3371582031252	-1127.723388671875	-333.0296325683594	726.0265502929689	-1132.224365234375	-285.5989379882813	729.4984130859376	-1126.166381835938	-359.0281372070313	672.4757690429689	-1122.74267578125	-340.8309020996094	513.2731323242189	-1119.573852539063	-329.0539550781251	498.3369140625001	-999.6685180664065	-325.4884338378907	331.0173034667969	-1062.31591796875	-355.2539672851563	292.1164550781251	-1136.203979492188	-325.0046081542969	286.4030761718751	-1100.995727539063	-344.4725646972657	207.3454895019532	-1076.696044921875	-402.033905029297	95.57643127441408	-1132.68798828125	-380.5715026855469	98.91102600097659	-1047.525512695313	-459.1007690429689	46.43624114990235	-1084.53173828125	-243.1758270263672	61.42274093627931	-1073.178588867188	-246.6385345458985	63.73799514770509	-1119.079956054688	-282.5165405273438	40.2887191772461	-1164.72705078125	-366.2994689941407	747.0305175781251	-736.1458740234376	-322.6989746093751	696.4483032226564	-725.9095458984376	-289.7067260742188	700.6574096679689	-729.0185546875001	-340.3394775390626	614.8617553710939	-740.0223388671876	-332.8605041503907	502.5812377929689	-739.3412475585939	-330.3082580566407	487.5886230468751	-861.3177490234377	-295.6432800292969	370.2379150390626	-753.7240600585939	-373.2763977050782	308.5887451171876	-705.6812744140626	-332.1122741699219	297.1525573730469	-720.8607177734376	-325.2120361328126	244.1590118408204	-742.4672851562501	-402.098602294922	94.99127197265626	-718.4937744140626	-379.2283325195313	98.33995056152347	-801.1189575195315	-453.740936279297	47.35393524169923	-762.3393554687501	-245.2711791992188	62.06740951538087	-773.659851074219	-237.2822570800782	61.13580322265626	-735.3461303710939	-273.8679809570313	39.23347091674805	-683.5067138671876	-440.7555236816407	1052.545043945313	-894.151550292969	nan	nan	nan	nan	nan	nan	
